#!OML:ASF F:\VICON\USERDATA\INSTALL\rory7\rory7.ASF
:FULLY-SPECIFIED
:DEGREES
1303
root 0.429656 18.8325 2.49945 -3.96309 -4.12322 1.53552
lowerback 5.97909 1.08326 -2.18622
upperback 0.668685 1.27353 -0.858594
thorax -2.69075 0.65309 0.238078
lowerneck -9.21037 -2.01415 -6.3477
upperneck 26.2891 -3.67429 7.78782
head 10.1058 -1.47706 3.43165
rclavicle -7.84112e-015 2.88238e-014
rhumerus -30.7323 40.76 -95.7874
rradius 93.2584
rwrist -2.35501
rhand -45.2097 11.8393
rfingers 7.12502
rthumb -17.9855 -17.3491
lclavicle -7.84112e-015 2.88238e-014
lhumerus -29.4544 -34.4154 94.8179
lradius 107.976
lwrist 11.4488
lhand -9.08831 29.0011
lfingers 7.12502
lthumb 16.8614 58.289
rfemur 8.28724 18.2919 17.314
rtibia 7.82925
rfoot -11.1584 -22.541
rtoes -6.68519
lfemur 6.65336 -12.0708 -19.6142
ltibia 8.90019
lfoot -10.7904 19.9976
ltoes -7.14318
1304
root 0.432177 18.8322 2.50545 -3.99002 -4.10293 1.63177
lowerback 5.93309 1.10496 -2.27342
upperback 0.649756 1.29703 -0.884637
thorax -2.68638 0.665688 0.258823
lowerneck -9.15729 -2.03607 -6.41698
upperneck 26.2116 -3.71768 7.89316
head 10.074 -1.49382 3.47487
rclavicle -2.14621e-014 1.17283e-014
rhumerus -31.0639 41.1226 -96.0813
rradius 93.3883
rwrist -3.25386
rhand -46.6282 13.1978
rfingers 7.12502
rthumb -19.3498 -15.8595
lclavicle -2.14621e-014 1.17283e-014
lhumerus -29.4513 -34.661 95.0064
lradius 107.838
lwrist 11.9137
lhand -9.55214 29.0177
lfingers 7.12502
lthumb 16.4149 58.3431
rfemur 8.35986 18.2811 17.2064
rtibia 7.79724
rfoot -11.1658 -22.5313
rtoes -6.67962
lfemur 6.67657 -12.0801 -19.7523
ltibia 8.96035
lfoot -10.822 20.0079
ltoes -7.19187
1305
root 0.431915 18.8325 2.51088 -3.9519 -4.25536 1.69877
lowerback 5.79687 1.17593 -2.35907
upperback 0.627086 1.38938 -0.904646
thorax -2.63712 0.712266 0.281139
lowerneck -9.16119 -2.04991 -6.44813
upperneck 26.1556 -3.74992 7.97762
head 10.0592 -1.50272 3.50559
rclavicle -1.13794e-014 -8.34896e-015
rhumerus -31.2492 41.3253 -96.2746
rradius 93.4805
rwrist -3.70226
rhand -46.2421 12.1984
rfingers 7.12502
rthumb -18.9785 -16.8958
lclavicle -1.13794e-014 -8.34896e-015
lhumerus -29.5145 -34.8964 95.1891
lradius 107.746
lwrist 12.3445
lhand -10.2861 29.0566
lfingers 7.12502
lthumb 15.7081 58.439
rfemur 8.28663 18.4377 17.1119
rtibia 7.817
rfoot -11.1396 -22.5399
rtoes -6.67528
lfemur 6.65739 -11.9198 -19.8281
ltibia 8.98581
lfoot -10.8979 19.9851
ltoes -7.11428
1306
root 0.420395 18.8341 2.51219 -3.82997 -4.53569 1.59674
lowerback 5.64249 1.28692 -2.435
upperback 0.565187 1.53762 -0.855567
thorax -2.6213 0.787436 0.364737
lowerneck -9.1905 -2.04686 -6.41175
upperneck 26.1541 -3.75647 7.99804
head 10.0645 -1.49929 3.50575
rclavicle 2.38535e-014 -1.39149e-015
rhumerus -31.2188 41.2511 -96.2659
rradius 93.4924
rwrist -3.38723
rhand -44.8704 11.2809
rfingers 7.12502
rthumb -17.659 -17.9372
lclavicle 2.38535e-014 -1.39149e-015
lhumerus -29.5135 -35.1697 95.3081
lradius 107.613
lwrist 12.6433
lhand -10.8281 29.2384
lfingers 7.12502
lthumb 15.1861 58.6612
rfemur 8.06478 18.6987 17.2378
rtibia 7.91722
rfoot -11.1102 -22.5661
rtoes -6.73092
lfemur 6.58729 -11.6521 -19.6315
ltibia 8.95194
lfoot -10.9292 19.9677
ltoes -6.97904
1307
root 0.404881 18.8333 2.51013 -3.78238 -4.64925 1.50059
lowerback 5.62993 1.35137 -2.56629
upperback 0.51481 1.61617 -0.799367
thorax -2.67348 0.829058 0.489198
lowerneck -9.2126 -2.03765 -6.38822
upperneck 26.1555 -3.74788 8.00291
head 10.0682 -1.49189 3.50439
rclavicle 2.78648e-015 3.97569e-015
rhumerus -31.1359 41.0858 -96.182
rradius 93.4866
rwrist -2.64166
rhand -43.8878 11.0244
rfingers 7.12502
rthumb -16.7132 -18.2761
lclavicle 2.78648e-015 3.97569e-015
lhumerus -29.4681 -35.4735 95.4222
lradius 107.422
lwrist 12.835
lhand -11.1407 29.3755
lfingers 7.12502
lthumb 14.885 58.8207
rfemur 7.96263 18.7934 17.4133
rtibia 8.02584
rfoot -11.1582 -22.5772
rtoes -6.6983
lfemur 6.55748 -11.5541 -19.435
ltibia 8.91362
lfoot -10.8751 19.9948
ltoes -6.99885
1308
root 0.40047 18.832 2.50758 -3.81319 -4.65529 1.49359
lowerback 5.69557 1.37221 -2.61857
upperback 0.492273 1.63784 -0.799091
thorax -2.73559 0.841145 0.51498
lowerneck -9.1979 -2.02374 -6.43604
upperneck 26.1031 -3.73672 8.08258
head 10.0475 -1.48324 3.54142
rclavicle -8.09426e-015 2.78299e-014
rhumerus -31.1231 41.0989 -96.195
rradius 93.5351
rwrist -2.39588
rhand -43.5025 10.5452
rfingers 7.12502
rthumb -16.3422 -18.7862
lclavicle -8.09426e-015 2.78299e-014
lhumerus -29.392 -35.7995 95.5354
lradius 107.186
lwrist 13.0775
lhand -11.6154 29.2116
lfingers 7.12502
lthumb 14.4276 58.6901
rfemur 7.95939 18.7977 17.4522
rtibia 8.08978
rfoot -11.2111 -22.563
rtoes -6.57532
lfemur 6.5789 -11.5511 -19.4117
ltibia 8.90358
lfoot -10.8334 20.0031
ltoes -7.07566
1309
root 0.404389 18.8313 2.51102 -3.81177 -4.67274 1.52134
lowerback 5.63718 1.38839 -2.59643
upperback 0.468663 1.66159 -0.826545
thorax -2.72649 0.852695 0.473489
lowerneck -9.1897 -2.01291 -6.45504
upperneck 26.0611 -3.73067 8.14161
head 10.0314 -1.47621 3.56563
rclavicle -6.52185e-015 -7.55382e-015
rhumerus -31.1324 41.1897 -96.2809
rradius 93.5391
rwrist -2.61584
rhand -43.3539 10.6108
rfingers 7.12502
rthumb -16.1992 -18.7324
lclavicle -6.52185e-015 -7.55382e-015
lhumerus -29.3533 -36.1589 95.6786
lradius 106.938
lwrist 13.2968
lhand -12.4215 28.9697
lfingers 7.12502
lthumb 13.6507 58.502
rfemur 7.91853 18.8199 17.3953
rtibia 8.16648
rfoot -11.2822 -22.5574
rtoes -6.58373
lfemur 6.61421 -11.5279 -19.4708
ltibia 8.86141
lfoot -10.7912 20.0034
ltoes -7.16767
1310
root 0.407871 18.8296 2.51733 -3.82391 -4.72482 1.52309
lowerback 5.55656 1.40507 -2.55858
upperback 0.45831 1.68841 -0.841271
thorax -2.69123 0.865338 0.436902
lowerneck -9.2361 -2.02379 -6.45985
upperneck 26.0699 -3.74417 8.14415
head 10.0451 -1.48164 3.56597
rclavicle 4.07664e-015 -1.98785e-016
rhumerus -31.0648 41.2777 -96.3544
rradius 93.4898
rwrist -2.79722
rhand -43.1397 11.2319
rfingers 7.12502
rthumb -15.9929 -18.1279
lclavicle 4.07664e-015 -1.98785e-016
lhumerus -29.3337 -36.5152 95.8233
lradius 106.723
lwrist 13.3095
lhand -13.325 28.9073
lfingers 7.12502
lthumb 12.7799 58.4961
rfemur 7.9102 18.8746 17.3793
rtibia 8.23386
rfoot -11.3502 -22.5643
rtoes -6.63506
lfemur 6.69312 -11.4723 -19.5019
ltibia 8.79778
lfoot -10.7855 20.0197
ltoes -7.19482
1311
root 0.410153 18.828 2.52213 -3.84155 -4.75516 1.54455
lowerback 5.4875 1.41265 -2.53624
upperback 0.477085 1.70176 -0.874977
thorax -2.63188 0.870926 0.390788
lowerneck -9.35318 -2.0432 -6.48517
upperneck 26.1209 -3.76779 8.15838
head 10.0894 -1.49081 3.57393
rclavicle -6.27259e-015 9.14409e-015
rhumerus -30.9474 41.3852 -96.4053
rradius 93.491
rwrist -3.08775
rhand -43.0012 11.7742
rfingers 7.12502
rthumb -15.8595 -17.5963
lclavicle -6.27259e-015 9.14409e-015
lhumerus -29.2184 -36.864 95.8921
lradius 106.524
lwrist 13.2248
lhand -14.1232 28.7941
lfingers 7.12502
lthumb 12.0103 58.4295
rfemur 7.94902 18.9087 17.3488
rtibia 8.21166
rfoot -11.383 -22.5664
rtoes -6.55898
lfemur 6.7337 -11.4385 -19.5422
ltibia 8.80143
lfoot -10.8502 20.0094
ltoes -7.17318
1312
root 0.41097 18.827 2.52416 -3.86058 -4.71075 1.56636
lowerback 5.43681 1.40545 -2.54152
upperback 0.512443 1.69382 -0.895351
thorax -2.56638 0.866118 0.375331
lowerneck -9.44419 -2.06866 -6.56806
upperneck 26.0972 -3.79098 8.19655
head 10.103 -1.50361 3.59868
rclavicle -2.07326e-015 -3.77691e-015
rhumerus -30.8232 41.5323 -96.4012
rradius 93.5466
rwrist -3.48734
rhand -42.9404 11.8313
rfingers 7.12502
rthumb -15.801 -17.5439
lclavicle -2.07326e-015 -3.77691e-015
lhumerus -29.0568 -37.1391 95.9702
lradius 106.324
lwrist 13.2598
lhand -14.8074 28.6689
lfingers 7.12502
lthumb 11.3505 58.3417
rfemur 8.02627 18.867 17.3262
rtibia 8.13062
rfoot -11.3742 -22.5547
rtoes -6.45857
lfemur 6.71826 -11.4806 -19.5768
ltibia 8.87951
lfoot -10.9387 19.9832
ltoes -7.16637
1313
root 0.413089 18.8277 2.52424 -3.86403 -4.6532 1.49137
lowerback 5.42648 1.38816 -2.44985
upperback 0.513368 1.67747 -0.868148
thorax -2.55736 0.85709 0.353588
lowerneck -9.44834 -2.10304 -6.68914
upperneck 25.9984 -3.81238 8.20975
head 10.0726 -1.52418 3.61941
rclavicle -1.13835e-015 -9.54166e-015
rhumerus -30.7938 41.8348 -96.4497
rradius 93.6372
rwrist -3.96801
rhand -43.2284 11.8464
rfingers 7.12502
rthumb -16.0783 -17.5066
lclavicle -1.13835e-015 -9.54166e-015
lhumerus -28.9313 -37.3387 96.1159
lradius 106.128
lwrist 13.3253
lhand -15.435 28.6394
lfingers 7.12502
lthumb 10.7452 58.3446
rfemur 8.08442 18.8043 17.405
rtibia 8.04515
rfoot -11.3066 -22.5351
rtoes -6.5493
lfemur 6.66515 -11.5429 -19.5073
ltibia 8.97331
lfoot -10.9609 19.9955
ltoes -7.31169
1314
root 0.418057 18.829 2.52645 -3.81116 -4.50639 1.44076
lowerback 5.3464 1.33925 -2.32381
upperback 0.488225 1.6218 -0.880094
thorax -2.53316 0.828016 0.276704
lowerneck -9.47539 -2.14474 -6.69405
upperneck 25.9928 -3.85143 8.14305
head 10.0785 -1.5494 3.5914
rclavicle 3.47252e-015 9.14409e-015
rhumerus -30.8713 42.1244 -96.6084
rradius 93.7133
rwrist -4.48669
rhand -43.5666 12.2535
rfingers 7.12502
rthumb -16.404 -17.0729
lclavicle 3.47252e-015 9.14409e-015
lhumerus -28.7632 -37.6062 96.217
lradius 105.927
lwrist 13.3364
lhand -16.1974 28.5442
lfingers 7.12502
lthumb 10.0097 58.2862
rfemur 8.12119 18.6528 17.4258
rtibia 7.91196
rfoot -11.2509 -22.5343
rtoes -6.75585
lfemur 6.51831 -11.6918 -19.4597
ltibia 9.09846
lfoot -10.9364 20.0198
ltoes -7.43255
1315
root 0.421476 18.8302 2.52999 -3.76837 -4.34299 1.46578
lowerback 5.26203 1.29726 -2.28789
upperback 0.461643 1.56882 -0.934034
thorax -2.50961 0.80102 0.206825
lowerneck -9.56474 -2.18699 -6.66009
upperneck 26.1021 -3.91266 8.11244
head 10.1401 -1.57539 3.56993
rclavicle 5.15598e-016 -1.19271e-015
rhumerus -30.9446 42.2024 -96.7574
rradius 93.7519
rwrist -4.7927
rhand -43.5113 12.406
rfingers 7.12502
rthumb -16.3507 -16.9248
lclavicle 5.15598e-016 -1.19271e-015
lhumerus -28.6443 -37.9394 96.302
lradius 105.75
lwrist 13.2019
lhand -17.1276 28.3779
lfingers 7.12502
lthumb 9.11224 58.161
rfemur 8.20264 18.4901 17.3711
rtibia 7.72158
rfoot -11.1434 -22.5576
rtoes -6.83994
lfemur 6.36458 -11.8519 -19.491
ltibia 9.27525
lfoot -10.9973 20.0004
ltoes -7.24826
1316
root 0.421065 18.8303 2.53369 -3.78932 -4.33612 1.41621
lowerback 5.25234 1.30741 -2.23075
upperback 0.43679 1.58512 -0.949472
thorax -2.52814 0.808763 0.15761
lowerneck -9.64437 -2.21213 -6.69662
upperneck 26.1975 -3.95097 8.14336
head 10.1953 -1.59122 3.58536
rclavicle 1.22656e-014 1.27222e-014
rhumerus -31.0356 42.2165 -96.8936
rradius 93.7955
rwrist -4.95658
rhand -43.4315 12.0183
rfingers 7.12502
rthumb -16.2739 -17.3188
lclavicle 1.22656e-014 1.27222e-014
lhumerus -28.6379 -38.2377 96.4254
lradius 105.612
lwrist 12.8436
lhand -18.0238 28.1008
lfingers 7.12502
lthumb 8.24732 57.9198
rfemur 8.29712 18.4795 17.4407
rtibia 7.61368
rfoot -11.0316 -22.5655
rtoes -6.84061
lfemur 6.35731 -11.8623 -19.4448
ltibia 9.37786
lfoot -11.089 19.9791
ltoes -7.11993
